Coordinates
version=1
nRows=29
nColumns=24
inDegrees=yes

Units are S.I. units (second, meters, Newtons, ...)
Angles are in degrees.

endheader
time	pelvis_tilt	pelvis_list	pelvis_rotation	pelvis_tx	pelvis_ty	pelvis_tz	hip_flexion_r	hip_adduction_r	hip_rotation_r	knee_angle_r	ankle_angle_r	subtalar_angle_r	mtp_angle_r	hip_flexion_l	hip_adduction_l	hip_rotation_l	knee_angle_l	ankle_angle_l	subtalar_angle_l	mtp_angle_l	lumbar_extension	lumbar_bending	lumbar_rotation
      4.63500000	     38.03071128	      0.15393928	      2.98699492	     -0.66936249	      0.65504190	     -0.25619124	    -52.07335113	      4.89914792	     -3.81629991	    -15.20923554	     25.20343692	     15.51139776	      0.00000000	    -15.20603215	      0.21397422	     -7.95544904	     -3.50343885	      7.08041434	     12.93196614	      0.00000000	    -62.37606643	      1.10997378	      4.06268693
      4.64000000	     38.09120479	      0.23934534	      2.83588273	     -0.66349156	      0.65517032	     -0.25641274	    -52.17555440	      4.62542035	     -3.86612510	    -16.19407009	     24.56716964	     15.68168311	      0.00000000	    -15.33271939	      0.31774213	     -7.89888256	     -4.34649139	      6.94170076	     12.99902251	      0.00000000	    -62.31174059	      0.84357675	      4.00060998
      4.64500000	     38.18207239	      0.27296791	      2.66165502	     -0.65765227	      0.65541600	     -0.25675249	    -52.23963795	      4.33387489	     -3.95437082	    -17.27640560	     23.77290506	     16.01840990	      0.00000000	    -15.52523438	      0.39584247	     -7.94123644	     -5.14833754	      6.60552402	     13.00978348	      0.00000000	    -62.28445480	      0.65875268	      3.94061328
      4.65000000	     38.28093736	      0.33437864	      2.47327656	     -0.65172901	      0.65569642	     -0.25705665	    -52.26827064	      4.00714459	     -4.09379259	    -18.43771276	     22.91932116	     16.33189047	      0.00000000	    -15.74689411	      0.50911417	     -7.94217792	     -5.95330031	      6.25744396	     13.00600025	      0.00000000	    -62.24923071	      0.41848418	      3.90437649
      4.65500000	     38.39455893	      0.39846309	      2.28605478	     -0.64576122	      0.65603932	     -0.25738204	    -52.24154709	      3.66366065	     -4.28274003	    -19.71891240	     21.94549354	     16.69379239	      0.00000000	    -16.03496734	      0.63918536	     -7.91784638	     -6.66591709	      5.82991837	     12.93025604	      0.00000000	    -62.21118351	      0.18289321	      3.87157121
      4.66000000	     38.55709552	      0.48252915	      2.04270615	     -0.63974480	      0.65645257	     -0.25775320	    -52.22088118	      3.22982092	     -4.54656102	    -21.06598273	     20.89549887	     17.18493319	      0.00000000	    -16.40270225	      0.83352874	     -7.82333381	     -7.35341331	      5.35129244	     12.61214913	      0.00000000	    -62.21694261	     -0.09855650	      3.88753537
      4.66500000	     38.67757640	      0.56263328	      1.88427898	     -0.63375173	      0.65689385	     -0.25810597	    -52.07389411	      2.87460921	     -4.85689737	    -22.52133646	     19.61832202	     17.45829590	      0.00000000	    -16.73231510	      0.99115841	     -7.73676817	     -7.99613456	      4.85197714	     12.48247720	      0.00000000	    -62.18669053	     -0.31145565	      3.78189026
      4.67000000	     38.83775144	      0.68152321	      1.71729832	     -0.62774505	      0.65737276	     -0.25857625	    -51.91263459	      2.44479674	     -5.27729028	    -24.05846180	     18.25563879	     17.85872372	      0.00000000	    -17.11403017	      1.23307770	     -7.42422806	     -8.62216935	      4.33653975	     11.90752718	      0.00000000	    -62.19078186	     -0.54072551	      3.71488495
      4.67500000	     38.97876170	      0.81031731	      1.60312019	     -0.62175308	      0.65787833	     -0.25905154	    -51.65768476	      2.04165440	     -5.76108942	    -25.68548369	     16.68852164	     18.14009140	      0.00000000	    -17.48365386	      1.47127220	     -7.08362820	     -9.21550454	      3.84559546	     11.40317595	      0.00000000	    -62.18283522	     -0.73576866	      3.57484688
      4.68000000	     39.11252381	      0.94561407	      1.51223424	     -0.61578623	      0.65840441	     -0.25958009	    -51.31802631	      1.62897090	     -6.30077416	    -27.40690459	     14.96163596	     18.34287598	      0.00000000	    -17.85191694	      1.72664057	     -6.65675592	     -9.78763811	      3.40703045	     10.79495592	      0.00000000	    -62.17525324	     -0.90680069	      3.41873137
      4.68500000	     39.23957630	      1.08561851	      1.43698426	     -0.60984332	      0.65894996	     -0.26012519	    -50.89916424	      1.20424876	     -6.88956490	    -29.20538984	     13.06470896	     18.44219759	      0.00000000	    -18.21949010	      1.99211051	     -6.16783009	    -10.34623276	      3.03729738	     10.13245298	      0.00000000	    -62.16795511	     -1.06070633	      3.23728031
      4.69000000	     39.36392302	      1.24015431	      1.39098264	     -0.60394954	      0.65949520	     -0.26071787	    -50.40405911	      0.77145585	     -7.51393674	    -31.08194361	     11.01624934	     18.40454559	      0.00000000	    -18.58662911	      2.27762613	     -5.60522073	    -10.89482091	      2.75344403	      9.38632162	      0.00000000	    -62.17027785	     -1.19817915	      3.04096804
      4.69500000	     39.47907063	      1.40394251	      1.35933678	     -0.59808042	      0.66004609	     -0.26134950	    -49.83639994	      0.31789383	     -8.17031970	    -33.01198940	      8.82342347	     18.22865152	      0.00000000	    -18.94816186	      2.57845568	     -5.00200035	    -11.44616262	      2.57401709	      8.62117137	      0.00000000	    -62.16864630	     -1.31124160	      2.81260794
      4.70000000	     39.59282230	      1.56887504	      1.33449943	     -0.59227414	      0.66059684	     -0.26198984	    -49.20019482	     -0.15212447	     -8.84123884	    -34.99391021	      6.52425625	     17.86964342	      0.00000000	    -19.31509012	      2.88506454	     -4.37317267	    -11.98893368	      2.49418894	      7.83333427	      0.00000000	    -62.18290987	     -1.42282868	      2.57890902
      4.70500000	     39.59744666	      1.78323223	      1.47797575	     -0.58648866	      0.66104442	     -0.26279813	    -48.41835147	     -0.56439317	     -9.66060127	    -36.98825551	      4.15073597	     17.45780235	      0.00000000	    -19.51785765	      3.19990883	     -3.52568687	    -12.62339875	      2.61702968	      6.98027553	      0.00000000	    -62.09586894	     -1.42105858	      2.17194508
      4.71000000	     39.68106853	      1.96488764	      1.48279729	     -0.58079758	      0.66156536	     -0.26347482	    -47.64178171	     -1.05562348	    -10.30718246	    -39.02370174	      1.74442195	     16.73781056	      0.00000000	    -19.86068647	      3.52127921	     -2.87470419	    -13.16937768	      2.76065115	      6.22695479	      0.00000000	    -62.10702486	     -1.50925427	      1.91693756
      4.71500000	     39.82353700	      2.15880386	      1.39787417	     -0.57516007	      0.66212552	     -0.26406632	    -46.88059089	     -1.62905672	    -10.87649977	    -41.06602236	     -0.61101833	     15.80662540	      0.00000000	    -20.31770885	      3.87858035	     -2.39420776	    -13.63151855	      2.93497540	      5.56142343	      0.00000000	    -62.19022491	     -1.67293602	      1.70337182
      4.72000000	     39.81456280	      2.34474006	      1.51461701	     -0.56961089	      0.66254923	     -0.26486666	    -45.93122985	     -2.06588364	    -11.52099529	    -43.08990874	     -2.89726567	     14.80915015	      0.00000000	    -20.53582839	      4.17416120	     -1.63708379	    -14.23901371	      3.37379748	      4.83982650	      0.00000000	    -62.13846309	     -1.65638067	      1.37288785
      4.72500000	     39.92767220	      2.56158417	      1.46062094	     -0.56413240	      0.66306246	     -0.26546039	    -45.07394453	     -2.63499111	    -12.01587216	    -45.10022695	     -4.97680018	     13.62800276	      0.00000000	    -20.96842982	      4.53519846	     -1.15507120	    -14.69588032	      3.72870649	      4.29960310	      0.00000000	    -62.22718656	     -1.80916557	      1.10865512
      4.73000000	     39.86691141	      2.75374547	      1.56652461	     -0.55876207	      0.66347132	     -0.26622305	    -44.00158813	     -3.09238065	    -12.56855065	    -47.08849553	     -6.87471340	     12.43322702	      0.00000000	    -21.16126546	      4.81791571	     -0.60319712	    -15.23911120	      4.24710405	      3.82114631	      0.00000000	    -62.16586128	     -1.80123326	      0.78054638
      4.73500000	     39.94308384	      2.94293769	      1.54911870	     -0.55341295	      0.66395085	     -0.26685164	    -43.07032977	     -3.60242134	    -12.95558818	    -49.00549755	     -8.45163888	     11.14162974	      0.00000000	    -21.57635154	      5.12290490	     -0.22209681	    -15.66115997	      4.82192844	      3.43651438	      0.00000000	    -62.23412592	     -1.88724473	      0.52272227
      4.74000000	     39.99777390	      3.13569074	      1.55183558	     -0.54821216	      0.66443243	     -0.26745260	    -42.08844379	     -4.08174720	    -13.28507301	    -50.88806198	     -9.69169397	      9.84604544	      0.00000000	    -21.96938987	      5.40441397	      0.10097663	    -16.05793593	      5.37606361	      3.19462964	      0.00000000	    -62.31702115	     -1.96963345	      0.26850272
      4.74500000	     40.09057063	      3.35239808	      1.52468784	     -0.54297807	      0.66494986	     -0.26801968	    -41.17119629	     -4.58764840	    -13.57533992	    -52.67896085	    -10.54497656	      8.62962093	      0.00000000	    -22.46070773	      5.70226082	      0.28022601	    -16.35997465	      5.95687931	      3.03494495	      0.00000000	    -62.41807611	     -2.06933711	     -0.05736768
      4.75000000	     40.04348482	      3.47951878	      1.57833364	     -0.53795624	      0.66542564	     -0.26858224	    -40.03382760	     -4.92072045	    -13.73296609	    -54.45204862	    -11.13460503	      7.39483439	      0.00000000	    -22.74675852	      5.86317969	      0.49196523	    -16.72889690	      6.61383795	      3.08068579	      0.00000000	    -62.42206699	     -2.07040832	     -0.25814222
      4.75500000	     40.10989872	      3.65906018	      1.60618038	     -0.53293360	      0.66595772	     -0.26911685	    -39.06947290	     -5.29515230	    -13.90055161	    -56.10834918	    -11.17913604	      6.28414313	      0.00000000	    -23.22421938	      6.06307002	      0.54606240	    -16.96965279	      7.24013455	      3.14077150	      0.00000000	    -62.53248968	     -2.10349666	     -0.56384816
      4.76000000	     40.06740228	      3.75787543	      1.65282870	     -0.52805871	      0.66648522	     -0.26957049	    -37.92321827	     -5.54286008	    -13.92827042	    -57.72897776	    -11.02678700	      5.18901080	      0.00000000	    -23.55902902	      6.15147680	      0.57666838	    -17.22829283	      7.89718938	      3.44006181	      0.00000000	    -62.55826388	     -2.10013822	     -0.77060182
      4.76500000	     40.05775999	      3.84815268	      1.71197942	     -0.52324275	      0.66704532	     -0.27002720	    -36.83055441	     -5.75038135	    -13.93783449	    -59.24233717	    -10.45918347	      4.22592779	      0.00000000	    -23.95572067	      6.20990531	      0.52190500	    -17.42533996	      8.53756601	      3.77894673	      0.00000000	    -62.62101658	     -2.06756890	     -0.98138738
      4.77000000	     40.08901274	      3.93784998	      1.81895205	     -0.51844877	      0.66766738	     -0.27048413	    -35.81872285	     -5.88876091	    -13.95549721	    -60.61210492	     -9.59906465	      3.32943732	      0.00000000	    -24.43391113	      6.22705839	      0.42254740	    -17.54465940	      9.14201266	      4.15914882	      0.00000000	    -62.71585053	     -1.98636226	     -1.19274214
      4.77500000	     40.05872912	      3.94879899	      1.91004129	     -0.51383712	      0.66827202	     -0.27087436	    -34.67395962	     -5.94067411	    -13.86471956	    -61.94100312	     -8.59561856	      2.50787371	      0.00000000	    -24.81305122	      6.15885681	      0.29926877	    -17.69138750	      9.75672613	      4.69718574	      0.00000000	    -62.78413038	     -1.88873068	     -1.34069810
